# xmcd
#
# Track frame offsets: 
#        150
#        11675
#        22800
#        34537
#        43725
#        55262
#        65350
#        76487
#        87610
#        96457
#
# Disc length: 1425 seconds
#
# Revision: 0
# Processed by: cddbd v1.5.2PL0 Copyright (c) Steve Scherf et al.
# Submitted via: ExactAudioCopy v0.99pb5
#
DISCID=7a058f0a
DTITLE=Patsy Cline - The Legendary Patsy Cline [CD1 of 2)
DYEAR=1900
DGENRE=Country
TTITLE0=Let the teardrops fall
TTITLE1=I can't forget
TTITLE2=Today, tomorrow and forever
TTITLE3=I love you honey
TTITLE4=Never no more
TTITLE5=Pick me up on your way down
TTITLE6=Stop the world (and let me off)
TTITLE7=Hidin' out
TTITLE8=Ain't no wheels on this ship
TTITLE9=Honkytonk merry-go-round
EXTD=
EXTT0=
EXTT1=
EXTT2=
EXTT3=
EXTT4=
EXTT5=
EXTT6=
EXTT7=
EXTT8=
EXTT9=
PLAYORDER=
